# xmcd CD database file
#
# Track frame offsets:
#	150
#	9825
#	22650
#	36507
#	48995
#	62495
#	76033
#	88146
#	98703
#	113816
#	128029
#	141792
#	158555
#	176668
#	188912
#	201287
#	216062
#	232975
#	250957
#	272970
#	286302
#
# Disc length: 4036 seconds
#
# Revision: 0
# Processed by: cddbd v1.5.2PL0 Copyright (c) Steve Scherf et al.
# Submitted via: CDex 1.51
#
DISCID=160fc215
DTITLE=Chet Baker - Chet Baker sings CD1 (1953-1962)
DYEAR=2014
DGENRE=Jazz
TTITLE0=I Fall In Love Too Easily #1
TTITLE1=The Thrill Is Gone
TTITLE2=But Not For Me
TTITLE3=Time After Time
TTITLE4=I Get Along Without You Very Well
TTITLE5=There Will Never Be Another You
TTITLE6=Look For The Silver Lining
TTITLE7=My Funny Valentine #1
TTITLE8=I Fall In Love Too Easily #2
TTITLE9=This Is Always
TTITLE10=Someone To Watch Over Me
TTITLE11=Grey December
TTITLE12=I Wish I Knew
TTITLE13=Daybreak
TTITLE14=Just Friends
TTITLE15=I Remember You
TTITLE16=Let's Get Lost
TTITLE17=Long Ago And Far Away
TTITLE18=You Don't Know What Love Is
TTITLE19=Let's Get Lost (alt take)
TTITLE20=Everything Happens To Me
EXTD=YEAR: 2014
EXTT0=
EXTT1=
EXTT2=
EXTT3=
EXTT4=
EXTT5=
EXTT6=
EXTT7=
EXTT8=
EXTT9=
EXTT10=
EXTT11=
EXTT12=
EXTT13=
EXTT14=
EXTT15=
EXTT16=
EXTT17=
EXTT18=
EXTT19=
EXTT20=
PLAYORDER=
